<?xml version="1.0" encoding="utf-8"?>
<!-- Generator: Adobe Illustrator 16.0.4, SVG Export Plug-In . SVG Version: 6.00 Build 0)  -->
<!DOCTYPE svg PUBLIC "-//W3C//DTD SVG 1.1//EN" "http://www.w3.org/Graphics/SVG/1.1/DTD/svg11.dtd">
<svg version="1.1" id="Layer_1" xmlns="http://www.w3.org/2000/svg" xmlns:xlink="http://www.w3.org/1999/xlink" x="0px" y="0px"
	 width="390px" height="110px" viewBox="0 0 390 110" enable-background="new 0 0 390 110" xml:space="preserve">
<path fill="#FFFFFF" d="M190.083,105c-0.484,0-0.97-0.185-1.337-0.554c-0.74-0.735-0.74-1.932,0-2.669L235.685,55L188.746,8.22
	c-0.74-0.736-0.74-1.931,0-2.667c0.739-0.737,1.938-0.737,2.677,0l48.279,48.113c0.739,0.736,0.739,1.932,0,2.667l-48.279,48.113
	C191.053,104.815,190.567,105,190.083,105z"/>
<path fill="#FFFFFF" d="M296.298,105c-0.484,0-0.969-0.185-1.338-0.554l-48.28-48.113c-0.739-0.735-0.739-1.931,0-2.667
	l48.28-48.113c0.738-0.737,1.938-0.737,2.677,0c0.739,0.736,0.739,1.931,0,2.667L250.696,55l46.94,46.777
	c0.739,0.737,0.739,1.934,0,2.669C297.267,104.815,296.783,105,296.298,105z"/>
<path fill="#FFFFFF" d="M74.678,105c-0.918,0-1.802-0.441-2.346-1.225L11.905,16.965v85.178c0,1.579-1.279,2.857-2.858,2.857
	c-1.577,0-2.856-1.278-2.856-2.857V7.857c0-1.248,0.81-2.35,2.002-2.726c1.191-0.375,2.486,0.071,3.199,1.095L71.82,93.037V7.857
	c0-1.576,1.279-2.855,2.857-2.855s2.856,1.279,2.856,2.855v94.285c0,1.25-0.811,2.353-2.001,2.727
	C75.25,104.959,74.962,105,74.678,105z"/>
<path fill="#FFFFFF" d="M167.316,105h-69.25c-1.588,0-2.875-1.279-2.875-2.857V7.857C95.19,6.279,96.478,5,98.065,5h69.25
	c1.589,0,2.875,1.279,2.875,2.857s-1.286,2.857-2.875,2.857h-66.376v88.571h66.376c1.589,0,2.875,1.279,2.875,2.856
	C170.19,103.721,168.905,105,167.316,105z"/>
<path fill="#FFFFFF" d="M153.087,58.8h-52.175c-1.588,0-2.876-1.28-2.876-2.856c0-1.578,1.288-2.857,2.876-2.857h52.175
	c1.586,0,2.875,1.279,2.875,2.857C155.962,57.52,154.674,58.8,153.087,58.8z"/>
<path fill="#FFFFFF" d="M385.347,10.715h-66.314c-1.568,0-2.842-1.279-2.842-2.858c0-1.577,1.273-2.856,2.842-2.856h66.314
	c1.57,0,2.844,1.279,2.844,2.856C388.19,9.436,386.917,10.715,385.347,10.715z"/>
<path fill="#FFFFFF" d="M352.19,105c-1.57,0-2.844-1.279-2.844-2.857V7.856c0-1.577,1.273-2.856,2.844-2.856
	c1.568,0,2.84,1.279,2.84,2.856v94.286C355.03,103.721,353.759,105,352.19,105z"/>
</svg>
